<svg width="86" height="29" viewBox="0 0 86 29" fill="none" xmlns="http://www.w3.org/2000/svg">
<path fill-rule="evenodd" clip-rule="evenodd" d="M10.866 8.72166C9.95185 6.99112 7.45684 7.01384 6.57457 8.76074L1.87869 18.0587C0.751225 20.2911 3.36622 22.5429 5.42001 21.1082L8.30367 19.0938C8.06476 18.9287 7.8304 18.7659 7.59815 18.604C6.75851 18.0184 6.28404 16.969 6.4364 16.0365C6.51396 15.5618 6.75495 15.1189 7.18838 14.7985C7.61876 14.4803 8.21507 14.3002 8.97783 14.3002C9.93113 14.3002 10.798 14.9017 11.126 15.7514C11.4655 16.6309 11.2076 17.7029 10.0692 18.5941L10.0628 18.5991L9.36034 19.0898C10.257 19.7027 11.243 20.3638 12.4319 21.1418C14.4776 22.4806 16.9471 20.2331 15.7954 18.0529L10.866 8.72166ZM8.83303 19.4582C9.78247 20.109 10.8254 20.8097 12.1006 21.6443C14.6884 23.3377 17.7595 20.4803 16.3293 17.7729L11.3999 8.44169C10.2572 6.27851 7.13845 6.30692 6.03562 8.49055L1.33973 17.7885C-0.0695958 20.579 3.19915 23.3938 5.76638 21.6004L8.83303 19.4582ZM8.83025 18.726L9.7028 18.1164C10.6703 17.356 10.7885 16.5517 10.5629 15.9672C10.3252 15.3517 9.68371 14.9013 8.97783 14.9013C8.30766 14.9013 7.84812 15.0593 7.54788 15.2812C7.25071 15.5009 7.08633 15.7999 7.03191 16.133C6.92031 16.816 7.27544 17.6451 7.94414 18.1115C8.23462 18.3141 8.52838 18.5179 8.83025 18.726Z" fill="white" stroke="white" stroke-width="0.729921" stroke-linecap="round"/>
<path d="M26.9271 10.2117C27.962 10.2117 28.8351 10.4704 29.5466 10.9878C30.271 11.5052 30.7755 12.1973 31.06 13.064V10.3475H32.8258V21H31.06V18.2835C30.7755 19.1502 30.271 19.8423 29.5466 20.3597C28.8351 20.8771 27.962 21.1358 26.9271 21.1358C25.9828 21.1358 25.142 20.9159 24.4047 20.4761C23.6673 20.0363 23.0852 19.4089 22.6583 18.594C22.2444 17.7661 22.0374 16.7959 22.0374 15.6834C22.0374 14.571 22.2444 13.6008 22.6583 12.7729C23.0852 11.945 23.6673 11.3112 24.4047 10.8714C25.142 10.4316 25.9828 10.2117 26.9271 10.2117ZM27.4316 11.7833C26.345 11.7833 25.4718 12.1326 24.8121 12.8311C24.1653 13.5167 23.842 14.4675 23.842 15.6834C23.842 16.8994 24.1653 17.8566 24.8121 18.5552C25.4718 19.2408 26.345 19.5835 27.4316 19.5835C28.1301 19.5835 28.751 19.4219 29.2943 19.0985C29.8506 18.7751 30.2839 18.3223 30.5944 17.7402C30.9048 17.1452 31.06 16.4596 31.06 15.6834C31.06 14.9073 30.9048 14.2217 30.5944 13.6267C30.2839 13.0316 29.8506 12.5789 29.2943 12.2684C28.751 11.945 28.1301 11.7833 27.4316 11.7833ZM35.3255 7.22353C35.3255 6.90014 35.4354 6.64142 35.6553 6.44739C35.8752 6.24042 36.1663 6.13693 36.5285 6.13693C36.8907 6.13693 37.1817 6.24042 37.4017 6.44739C37.6216 6.64142 37.7315 6.90014 37.7315 7.22353C37.7315 7.54692 37.6216 7.8121 37.4017 8.01907C37.1817 8.21311 36.8907 8.31012 36.5285 8.31012C36.1663 8.31012 35.8752 8.21311 35.6553 8.01907C35.4354 7.8121 35.3255 7.54692 35.3255 7.22353ZM37.4017 10.3475V21H35.6359V10.3475H37.4017ZM46.1197 10.2117C47.064 10.2117 47.9048 10.4316 48.6422 10.8714C49.3795 11.3112 49.9551 11.945 50.3691 12.7729C50.796 13.6008 51.0094 14.571 51.0094 15.6834C51.0094 16.7959 50.796 17.7661 50.3691 18.594C49.9551 19.4089 49.3795 20.0363 48.6422 20.4761C47.9048 20.9159 47.064 21.1358 46.1197 21.1358C45.0849 21.1358 44.2052 20.8771 43.4809 20.3597C42.7694 19.8293 42.2778 19.1373 42.0062 18.2835V21H40.2405V6.64142H42.0062V13.064C42.2778 12.2102 42.7694 11.5246 43.4809 11.0072C44.2052 10.4768 45.0849 10.2117 46.1197 10.2117ZM45.6152 11.7833C44.9296 11.7833 44.3087 11.945 43.7525 12.2684C43.1963 12.5789 42.7629 13.0316 42.4525 13.6267C42.142 14.2217 41.9868 14.9073 41.9868 15.6834C41.9868 16.4596 42.142 17.1452 42.4525 17.7402C42.7629 18.3223 43.1963 18.7751 43.7525 19.0985C44.3087 19.4219 44.9296 19.5835 45.6152 19.5835C46.7148 19.5835 47.5879 19.2408 48.2347 18.5552C48.8944 17.8566 49.2243 16.8994 49.2243 15.6834C49.2243 14.4675 48.8944 13.5167 48.2347 12.8311C47.5879 12.1326 46.7148 11.7833 45.6152 11.7833ZM55.0808 12.5013C55.4301 11.7639 55.941 11.1948 56.6137 10.7938C57.2863 10.3798 58.0883 10.1729 59.0197 10.1729V12.0938H58.4764C57.4804 12.0938 56.6654 12.3525 56.0316 12.8699C55.3977 13.3744 55.0808 14.2152 55.0808 15.3924V21H53.3151V10.3475H55.0808V12.5013ZM66.3695 10.1729C67.6114 10.1729 68.6139 10.5739 69.3771 11.3759C70.1403 12.1649 70.5219 13.3098 70.5219 14.8103V21H68.7562V14.9655C68.7562 13.9048 68.4845 13.0898 67.9412 12.5207C67.3979 11.9515 66.6606 11.6669 65.7292 11.6669C64.759 11.6669 63.9829 11.9838 63.4008 12.6177C62.8187 13.2386 62.5276 14.1506 62.5276 15.3536V21H60.7619V10.3475H62.5276V12.8699C62.7993 12.0033 63.2779 11.3371 63.9635 10.8714C64.662 10.4057 65.464 10.1729 66.3695 10.1729ZM79.1094 10.2117C80.0537 10.2117 80.8946 10.4316 81.6319 10.8714C82.3692 11.3112 82.9449 11.945 83.3588 12.7729C83.7857 13.6008 83.9991 14.571 83.9991 15.6834C83.9991 16.7959 83.7857 17.7661 83.3588 18.594C82.9449 19.4089 82.3692 20.0363 81.6319 20.4761C80.8946 20.9159 80.0537 21.1358 79.1094 21.1358C78.0746 21.1358 77.195 20.8771 76.4706 20.3597C75.7591 19.8293 75.2675 19.1373 74.9959 18.2835V21H73.2302V6.64142H74.9959V13.064C75.2675 12.2102 75.7591 11.5246 76.4706 11.0072C77.195 10.4768 78.0746 10.2117 79.1094 10.2117ZM78.6049 11.7833C77.9193 11.7833 77.2984 11.945 76.7422 12.2684C76.186 12.5789 75.7526 13.0316 75.4422 13.6267C75.1317 14.2217 74.9765 14.9073 74.9765 15.6834C74.9765 16.4596 75.1317 17.1452 75.4422 17.7402C75.7526 18.3223 76.186 18.7751 76.7422 19.0985C77.2984 19.4219 77.9193 19.5835 78.6049 19.5835C79.7045 19.5835 80.5776 19.2408 81.2244 18.5552C81.8841 17.8566 82.214 16.8994 82.214 15.6834C82.214 14.4675 81.8841 13.5167 81.2244 12.8311C80.5776 12.1326 79.7045 11.7833 78.6049 11.7833Z" fill="white"/>
</svg>
