<svg width="144" height="19" viewBox="0 0 144 19" fill="none" xmlns="http://www.w3.org/2000/svg">
<g clip-path="url(#clip0_46_778)">
<path d="M143.672 17.9712C142.556 17.9701 141.44 17.9492 140.326 17.9778C139.933 17.9877 139.735 17.8524 139.563 17.5244C137.808 14.1646 135.769 10.9478 134.215 7.44922C134.206 7.61429 134.189 7.77937 134.189 7.94335C134.188 11.1106 134.178 14.279 134.199 17.4463C134.203 17.8876 134.071 17.9965 133.643 17.9756C132.939 17.9415 132.231 17.9536 131.524 17.9723C131.221 17.98 131.104 17.9052 131.104 17.5827C131.114 13.1411 131.112 8.6983 131.104 4.25663C131.104 3.94628 131.197 3.85054 131.514 3.85384C132.871 3.86815 134.228 3.87145 135.585 3.85164C135.906 3.84724 136.042 3.987 136.168 4.23462C137.567 6.96059 139.201 9.57101 140.362 12.4147C140.388 12.4797 140.432 12.5369 140.492 12.6392C140.656 12.4522 140.594 12.2519 140.594 12.0758C140.598 9.50828 140.605 6.94188 140.588 4.37438C140.586 3.9793 140.67 3.82963 141.106 3.85054C141.959 3.89126 142.815 3.87365 143.669 3.88025V17.9712H143.672Z" fill="white"/>
<path d="M97.0525 18.1894C96.6317 17.9319 96.1349 17.9924 95.6794 17.8791C94.9571 17.6997 94.2627 17.4609 93.5762 17.1824C93.2658 17.057 93.1754 16.8776 93.1843 16.5617C93.2055 15.7617 93.2134 14.9594 93.1843 14.1604C93.1676 13.7004 93.2692 13.6366 93.6956 13.8446C95.5577 14.7547 97.5225 15.2147 99.6146 15.0221C100.471 14.9429 100.862 14.5775 100.888 13.9238C100.908 13.4187 100.651 13.1072 100.207 12.9036C99.3757 12.5207 98.4737 12.3853 97.5917 12.1795C96.5937 11.9473 95.628 11.637 94.793 11.0273C92.5681 9.40071 92.7869 5.80093 95.1927 4.44289C95.9797 3.99829 96.8427 3.78149 97.7324 3.70005C99.6246 3.52507 101.473 3.71215 103.253 4.41758C103.57 4.54304 103.712 4.69491 103.702 5.04928C103.674 5.93959 103.693 6.83101 103.693 7.74333C103.419 7.78515 103.223 7.62998 103.012 7.54964C101.405 6.93336 99.7675 6.50416 98.0204 6.71435C97.5114 6.77598 97.0224 6.90364 96.7891 7.42419C96.5758 7.89961 96.7556 8.37943 97.2624 8.68097C97.9892 9.11347 98.8186 9.25544 99.6291 9.44363C100.461 9.63732 101.282 9.85742 102.059 10.2118C103.709 10.9645 104.472 12.1465 104.397 13.827C104.307 15.8739 103.447 17.1329 101.693 17.7393C101.164 17.922 100.612 18.0419 100.069 18.1905H99.5108C98.8789 18.0364 98.247 18.0166 97.6152 18.1905H97.057L97.0525 18.1894Z" fill="white"/>
<path d="M83.1101 18.1898C82.6703 17.9323 82.1545 17.9939 81.6812 17.8718C80.9611 17.6858 80.2657 17.4503 79.5813 17.1641C79.2877 17.042 79.2185 16.867 79.2252 16.5786C79.2419 15.7599 79.252 14.9411 79.223 14.1223C79.2073 13.6678 79.3324 13.6502 79.7119 13.8351C81.574 14.743 83.5355 15.2118 85.6276 15.0247C86.4972 14.9466 86.8857 14.5955 86.927 13.9517C86.9605 13.418 86.687 13.0988 86.2248 12.8908C85.4087 12.5222 84.5257 12.3824 83.6605 12.1854C82.6792 11.962 81.7292 11.6605 80.9009 11.0761C78.5744 9.43742 78.801 5.7683 81.3061 4.40587C82.0664 3.99207 82.8925 3.78628 83.7442 3.70374C85.6555 3.51995 87.5209 3.71475 89.3183 4.42568C89.623 4.54673 89.7347 4.70081 89.7269 5.02546C89.7034 5.93338 89.719 6.8413 89.719 7.81196C88.5893 7.36295 87.5019 6.95356 86.3443 6.77968C85.5516 6.66082 84.7579 6.58599 83.9608 6.72355C83.5176 6.80059 83.0834 6.92054 82.8567 7.36295C82.6 7.86478 82.7819 8.37322 83.3457 8.70007C84.0769 9.12377 84.9064 9.25913 85.7169 9.45062C86.5285 9.64211 87.3334 9.85671 88.0925 10.2045C89.7291 10.9528 90.5262 12.1612 90.4424 13.7591C90.3297 15.9106 89.488 17.1432 87.6906 17.7507C87.1771 17.9246 86.6457 18.0445 86.1221 18.1898H85.5639C84.9321 18.0357 84.3002 18.0159 83.6683 18.1898H83.1101V18.1898Z" fill="white"/>
<path d="M83.668 18.1895C84.2998 18.0156 84.9317 18.0354 85.5636 18.1895H83.668Z" fill="white"/>
<path d="M97.6084 18.1895C98.2403 18.0156 98.8721 18.0354 99.504 18.1895H97.6084Z" fill="white"/>
<path d="M32.7543 3.8602C33.3459 3.89872 34.2402 3.58397 34.7392 3.96915C35.208 4.33012 35.2694 5.20393 35.5028 5.85433C36.8792 9.71053 38.2434 13.57 39.6378 17.4196C39.8142 17.9061 39.7182 17.9963 39.2247 17.9776C38.316 17.9446 37.4039 17.9468 36.4941 17.9776C36.1112 17.9908 35.9281 17.8873 35.841 17.5143C35.7171 16.9838 35.5195 16.471 35.39 15.9416C35.3186 15.6511 35.1779 15.6104 34.9144 15.6764C33.3739 16.0616 31.8288 16.0693 30.2893 15.6764C29.9823 15.5983 29.8651 15.6907 29.7903 15.978C29.6497 16.5238 29.4643 17.0576 29.3159 17.6012C29.2444 17.862 29.1339 17.982 28.8269 17.9754C27.8244 17.9534 26.8197 17.9468 25.8172 17.9754C25.3561 17.9897 25.3985 17.8235 25.5135 17.5011C26.6678 14.281 27.8099 11.0565 28.9564 7.83415C29.3828 6.63459 29.8227 5.43834 30.2324 4.23217C30.3318 3.93944 30.4724 3.83819 30.7861 3.85029C31.3979 3.87561 32.0119 3.858 32.7554 3.858L32.7543 3.8602ZM32.6493 6.8525L32.5232 6.83929C31.9505 8.74098 31.3789 10.6438 30.8051 12.5455C30.7381 12.7689 30.8631 12.8184 31.0518 12.8635C32.061 13.1078 33.0657 13.1001 34.0783 12.8778C34.3864 12.8107 34.411 12.6819 34.3317 12.4244C33.7657 10.5689 33.2086 8.71016 32.6482 6.8525H32.6493Z" fill="white"/>
<path d="M114.247 17.9675C114.816 16.3684 115.352 14.864 115.888 13.3585C116.962 10.3431 118.045 7.32992 119.101 4.30791C119.226 3.94915 119.389 3.8413 119.766 3.8501C120.936 3.87541 122.106 3.87101 123.276 3.8523C123.588 3.8468 123.727 3.94034 123.83 4.23198C125.391 8.65714 126.958 13.0801 128.543 17.4976C128.693 17.9158 128.595 17.984 128.187 17.9741C127.24 17.9521 126.292 17.9411 125.346 17.9796C124.937 17.9961 124.8 17.8409 124.715 17.4921C124.586 16.9627 124.404 16.4466 124.263 15.9205C124.197 15.6762 124.084 15.6047 123.829 15.6696C122.272 16.0625 120.709 16.0702 119.15 15.674C118.87 15.6025 118.752 15.674 118.679 15.9469C118.525 16.5258 118.328 17.0948 118.169 17.6726C118.112 17.8783 118.032 17.9752 117.797 17.973C116.646 17.9631 115.496 17.9686 114.248 17.9686L114.247 17.9675ZM121.536 6.8413C121.463 6.8578 121.434 6.8578 121.432 6.86661C120.858 8.73858 120.289 10.6128 119.712 12.4847C119.628 12.7566 119.756 12.8237 119.994 12.8776C120.968 13.101 121.937 13.0933 122.915 12.8941C123.253 12.8248 123.318 12.6982 123.216 12.3769C122.875 11.305 122.566 10.2232 122.241 9.14577C122.009 8.37541 121.77 7.60615 121.537 6.8413H121.536Z" fill="white"/>
<path d="M69.8488 3.86003C70.4617 3.86003 71.0757 3.87434 71.6874 3.85343C71.9788 3.84352 72.1027 3.94587 72.1976 4.2166C73.7672 8.65827 75.3469 13.0966 76.931 17.5339C77.0393 17.8377 77.0493 17.9862 76.634 17.9752C75.6315 17.9488 74.6279 17.9565 73.6254 17.973C73.3307 17.9785 73.2034 17.8861 73.132 17.6043C72.9936 17.0585 72.7904 16.5291 72.6553 15.9833C72.5816 15.6861 72.4666 15.5992 72.1596 15.6762C70.6202 16.0658 69.0751 16.068 67.5357 15.674C67.2175 15.5926 67.117 15.7104 67.0433 15.9833C66.8982 16.528 66.7151 17.0618 66.5689 17.6054C66.4974 17.8707 66.378 17.9807 66.0755 17.9741C65.0919 17.9521 64.1062 17.9477 63.1227 17.9741C62.6817 17.9862 62.646 17.874 62.7855 17.4866C64.2368 13.4466 65.668 9.39891 67.1114 5.35673C67.2878 4.8637 67.3023 4.17698 67.7087 3.94037C68.1106 3.70706 68.7536 3.86883 69.2906 3.85893C69.4759 3.85563 69.6623 3.85893 69.8476 3.85893L69.8488 3.86003ZM69.899 6.77969C69.8276 6.84462 69.7851 6.86443 69.7773 6.89415C69.2147 8.75291 68.6576 10.6139 68.0894 12.4715C68.009 12.7346 68.0972 12.8149 68.3506 12.8732C69.3252 13.0977 70.2931 13.0867 71.2733 12.9007C71.6696 12.8259 71.674 12.6564 71.5758 12.3384C71.0109 10.4994 70.4628 8.65497 69.899 6.77969V6.77969Z" fill="white"/>
<path d="M14.8531 17.9674C13.9622 17.9674 13.0702 17.9607 12.1794 17.9707C11.8545 17.974 11.5922 17.9013 11.4426 17.5954C10.3496 15.3701 9.01447 13.2528 8.13812 10.9351C6.86882 7.5763 7.26401 4.32979 9.15178 1.26376C9.52912 0.649671 9.90421 0.658475 10.2257 1.28907C12.8972 6.51871 15.5642 11.7506 18.2301 16.9846C18.5694 17.6515 18.3596 17.9629 17.5848 17.9663C16.675 17.9707 15.7651 17.9663 14.8553 17.9663L14.8531 17.9674Z" fill="white"/>
<path d="M46.7748 12.4779C46.7748 14.1518 46.7614 15.8267 46.7849 17.5006C46.7905 17.8902 46.6732 17.9915 46.287 17.9772C45.4888 17.9485 44.6884 17.9474 43.8913 17.9772C43.5005 17.9926 43.3967 17.8825 43.3989 17.4973C43.4157 14.2035 43.3956 10.9097 43.4213 7.61581C43.4257 7.07326 43.3253 6.85536 42.7157 6.89718C41.8651 6.95551 41.0077 6.90158 40.1526 6.91699C39.8389 6.92249 39.6759 6.87187 39.6881 6.5076C39.7138 5.74384 39.7094 4.97898 39.6893 4.21523C39.6814 3.91369 39.8031 3.85536 40.08 3.85646C43.5173 3.86416 46.9546 3.86416 50.3919 3.85646C50.6743 3.85646 50.7826 3.92139 50.7748 4.21743C50.7547 4.98119 50.748 5.74714 50.777 6.5098C50.7915 6.87737 50.633 6.92249 50.3182 6.91699C49.3146 6.90158 48.311 6.9357 47.3085 6.90048C46.8496 6.88397 46.7581 7.04025 46.7637 7.45514C46.786 9.12902 46.7726 10.8029 46.7726 12.4779H46.7748Z" fill="white"/>
<path d="M61.2712 14.9121C60.9251 15.8805 60.5869 16.7995 60.2754 17.7272C60.195 17.9649 60.0466 17.9693 59.8545 17.9682C57.7926 17.966 55.7296 17.9605 53.6676 17.9737C53.3573 17.9759 53.3037 17.8571 53.3048 17.5907C53.3115 13.1326 53.3115 8.67438 53.3037 4.2162C53.3037 3.91906 53.4109 3.84973 53.6911 3.85523C54.5272 3.86954 55.3634 3.88164 56.1985 3.85083C56.5992 3.83542 56.6863 3.96418 56.6841 4.33836C56.6696 7.68612 56.6841 11.035 56.6662 14.3827C56.664 14.7998 56.7566 14.9352 57.2065 14.9242C58.5406 14.8923 59.8769 14.9132 61.2723 14.9132L61.2712 14.9121Z" fill="white"/>
<path d="M111.622 10.9276C111.622 13.0923 111.607 15.2559 111.634 17.4206C111.639 17.8872 111.497 18.0017 111.043 17.9797C110.265 17.9434 109.484 17.9555 108.705 17.9764C108.383 17.9852 108.248 17.9257 108.249 17.567C108.261 13.1297 108.26 8.69134 108.251 4.25406C108.251 3.93822 108.357 3.85128 108.668 3.85788C109.503 3.87549 110.34 3.88539 111.174 3.85458C111.568 3.83917 111.631 3.99104 111.628 4.3267C111.616 6.52773 111.623 8.72765 111.623 10.9287L111.622 10.9276Z" fill="white"/>
<path d="M8.44161 15.2297C8.42375 16.0639 8.23508 16.8606 7.88343 17.62C7.76174 17.8819 7.54405 17.9722 7.2538 17.9722C5.36379 17.9656 3.47378 17.9733 1.58266 17.9656C1.02448 17.9634 0.769945 17.653 0.992102 17.2139C1.76909 15.6754 2.49473 14.1116 3.36215 12.6182C3.46708 12.6512 3.58207 12.6677 3.67473 12.7205C4.65043 13.2785 5.60492 13.8738 6.60072 14.3933C7.19575 14.7036 7.70592 15.2132 8.44049 15.2308L8.44161 15.2297Z" fill="white"/>
<path d="M8.44163 15.229C7.70594 15.2114 7.19576 14.7008 6.60186 14.3915C5.60606 13.8721 4.65045 13.2767 3.67586 12.7187C3.58321 12.6659 3.46822 12.6494 3.36328 12.6164C3.98733 11.3695 4.60245 10.1171 5.24212 8.87794C5.45535 8.46524 5.83157 8.41792 6.13187 8.77559C7.02273 9.83758 7.73609 10.9843 8.08774 12.3501C8.33334 13.3053 8.51308 14.2462 8.44274 15.229H8.44163Z" fill="white"/>
</g>
<defs>
<clipPath id="clip0_46_778">
<rect width="142.759" height="17.3793" fill="white" transform="translate(0.913086 0.810547)"/>
</clipPath>
</defs>
</svg>
