<svg width="109" height="29" viewBox="0 0 109 29" fill="none" xmlns="http://www.w3.org/2000/svg">
<path d="M38 15.956V0.5H41.906V15.956H38ZM47.24 15.956L42.935 9.446H47.177L51.734 15.956H47.24ZM40.919 11.252V8.249H44.594C45.056 8.249 45.455 8.158 45.791 7.976C46.127 7.794 46.386 7.535 46.568 7.199C46.764 6.863 46.862 6.471 46.862 6.023C46.862 5.561 46.764 5.162 46.568 4.826C46.386 4.49 46.127 4.231 45.791 4.049C45.455 3.867 45.056 3.776 44.594 3.776H40.919V0.5H44.363C45.693 0.5 46.841 0.703001 47.807 1.109C48.773 1.501 49.515 2.089 50.033 2.873C50.551 3.643 50.81 4.602 50.81 5.75V6.086C50.81 7.234 50.544 8.193 50.012 8.963C49.494 9.719 48.752 10.293 47.786 10.685C46.834 11.063 45.693 11.252 44.363 11.252H40.919Z" fill="white"/>
<path d="M60.3909 15.956V12.554H59.7609V8.921C59.7609 8.389 59.6349 7.997 59.3829 7.745C59.1449 7.479 58.7459 7.346 58.1859 7.346C57.9199 7.346 57.5279 7.353 57.0099 7.367C56.4919 7.381 55.9459 7.402 55.3719 7.43C54.7979 7.458 54.2729 7.486 53.7969 7.514V4.322C54.1329 4.294 54.5319 4.266 54.9939 4.238C55.4559 4.21 55.9319 4.189 56.4219 4.175C56.9259 4.161 57.3879 4.154 57.8079 4.154C58.9979 4.154 60.0059 4.329 60.8319 4.679C61.6719 5.029 62.3089 5.554 62.7429 6.254C63.1909 6.954 63.4149 7.843 63.4149 8.921V15.956H60.3909ZM56.7159 16.25C55.9039 16.25 55.1829 16.103 54.5529 15.809C53.9229 15.515 53.4259 15.095 53.0619 14.549C52.7119 13.989 52.5369 13.324 52.5369 12.554C52.5369 11.686 52.7679 10.986 53.2299 10.454C53.6919 9.908 54.3289 9.509 55.1409 9.257C55.9529 9.005 56.8839 8.879 57.9339 8.879H60.1809V10.853H57.9339C57.4159 10.853 57.0169 10.986 56.7369 11.252C56.4569 11.504 56.3169 11.847 56.3169 12.281C56.3169 12.701 56.4569 13.044 56.7369 13.31C57.0169 13.562 57.4159 13.688 57.9339 13.688C58.2699 13.688 58.5639 13.632 58.8159 13.52C59.0819 13.394 59.2989 13.184 59.4669 12.89C59.6349 12.596 59.7329 12.19 59.7609 11.672L60.6429 12.512C60.5729 13.31 60.3769 13.989 60.0549 14.549C59.7469 15.095 59.3129 15.515 58.7529 15.809C58.2069 16.103 57.5279 16.25 56.7159 16.25Z" fill="white"/>
<path d="M65.9687 15.956V4.364H68.9927V9.341H68.8247C68.8247 8.137 68.9787 7.143 69.2867 6.359C69.5947 5.561 70.0497 4.966 70.6517 4.574C71.2677 4.182 72.0097 3.986 72.8777 3.986H73.0457C74.3617 3.986 75.3767 4.427 76.0907 5.309C76.8187 6.177 77.1827 7.514 77.1827 9.32V15.956H73.3607V9.215C73.3607 8.683 73.1997 8.249 72.8777 7.913C72.5697 7.563 72.1427 7.388 71.5967 7.388C71.0507 7.388 70.6097 7.563 70.2737 7.913C69.9517 8.249 69.7907 8.697 69.7907 9.257V15.956H65.9687Z" fill="white"/>
<path d="M87.982 15.956L84.559 10.538H83.005L87.541 4.364H91.531L87.226 10.181V8.333L92.245 15.956H87.982ZM79.75 15.956V0.626001H83.572V15.956H79.75Z" fill="white"/>
<path d="M42.716 28.5C41.8593 28.5 41.1269 28.3481 40.5186 28.0443C39.919 27.7405 39.4349 27.3455 39.0666 26.8594C38.6982 26.3733 38.4283 25.8481 38.257 25.2839C38.0857 24.7109 38 24.1597 38 23.6302V23.3437C38 22.7708 38.0857 22.1979 38.257 21.625C38.4369 21.0521 38.711 20.5312 39.0794 20.0625C39.4478 19.5938 39.9275 19.2161 40.5186 18.9297C41.1097 18.6432 41.8165 18.5 42.6389 18.5C43.4785 18.5 44.1981 18.6476 44.7977 18.9427C45.3974 19.2378 45.8729 19.6502 46.2241 20.1797C46.5753 20.7092 46.7895 21.3342 46.8666 22.0547H45.5816C45.5131 21.5165 45.3417 21.0738 45.0676 20.7266C44.7935 20.3707 44.4465 20.1059 44.0267 19.9323C43.6155 19.7587 43.1529 19.6719 42.6389 19.6719C42.0821 19.6719 41.5938 19.7717 41.174 19.9714C40.7542 20.1623 40.403 20.4358 40.1203 20.7917C39.8461 21.1389 39.6363 21.5425 39.4906 22.0026C39.3536 22.4627 39.285 22.9618 39.285 23.5C39.285 24.0122 39.3536 24.4983 39.4906 24.9583C39.6363 25.4184 39.8504 25.8264 40.1331 26.1823C40.4244 26.5382 40.7842 26.8203 41.2125 27.0286C41.6409 27.2283 42.142 27.3281 42.716 27.3281C43.5213 27.3281 44.1981 27.1241 44.7463 26.7161C45.2946 26.3082 45.6287 25.7179 45.7487 24.9453H47.0337C46.948 25.5964 46.7295 26.191 46.3783 26.7292C46.0356 27.2674 45.5559 27.697 44.9391 28.0182C44.3309 28.3394 43.5898 28.5 42.716 28.5Z" fill="white"/>
<path d="M51.8386 28.5C51.239 28.5 50.7121 28.3958 50.2581 28.1875C49.804 27.9792 49.4185 27.7057 49.1015 27.3672C48.7931 27.02 48.5576 26.6337 48.3948 26.2083C48.2406 25.783 48.1635 25.349 48.1635 24.9063V24.6719C48.1635 24.2292 48.2449 23.7951 48.4076 23.3698C48.5704 22.9358 48.8103 22.5495 49.1272 22.2109C49.4442 21.8637 49.8297 21.5903 50.2838 21.3906C50.7378 21.1823 51.2561 21.0781 51.8386 21.0781C52.4212 21.0781 52.9395 21.1823 53.3935 21.3906C53.8475 21.5903 54.233 21.8637 54.55 22.2109C54.867 22.5495 55.1069 22.9358 55.2696 23.3698C55.4324 23.7951 55.5138 24.2292 55.5138 24.6719V24.9063C55.5138 25.349 55.4324 25.783 55.2696 26.2083C55.1154 26.6337 54.8798 27.02 54.5629 27.3672C54.2545 27.7057 53.8732 27.9792 53.4192 28.1875C52.9652 28.3958 52.4383 28.5 51.8386 28.5ZM51.8386 27.3802C52.3526 27.3802 52.7895 27.2674 53.1493 27.0417C53.5177 26.8073 53.7961 26.4948 53.9846 26.1042C54.1816 25.7135 54.2802 25.2752 54.2802 24.7891C54.2802 24.2943 54.1816 23.8516 53.9846 23.4609C53.7876 23.0703 53.5049 22.7622 53.1365 22.5365C52.7767 22.3108 52.3441 22.1979 51.8386 22.1979C51.3418 22.1979 50.9091 22.3108 50.5408 22.5365C50.1724 22.7622 49.8897 23.0703 49.6927 23.4609C49.4956 23.8516 49.3971 24.2943 49.3971 24.7891C49.3971 25.2752 49.4913 25.7135 49.6798 26.1042C49.8768 26.4948 50.1553 26.8073 50.5151 27.0417C50.8834 27.2674 51.3246 27.3802 51.8386 27.3802Z" fill="white"/>
<path d="M57.3614 28.2656V21.3125H58.338V24.2943H58.1838C58.1838 23.6085 58.2738 23.0313 58.4537 22.5625C58.6421 22.0851 58.9248 21.7248 59.3018 21.4818C59.6787 21.23 60.1542 21.1042 60.7281 21.1042H60.7795C61.6448 21.1042 62.283 21.3776 62.6942 21.9245C63.114 22.4714 63.3239 23.2613 63.3239 24.2943V28.2656H62.0903V24.0339C62.0903 23.4957 61.9403 23.066 61.6405 22.7448C61.3407 22.4149 60.9295 22.25 60.4069 22.25C59.8672 22.25 59.4303 22.4193 59.0962 22.7578C58.7621 23.0964 58.595 23.5477 58.595 24.112V28.2656H57.3614Z" fill="white"/>
<path d="M67.8298 28.474C66.9303 28.474 66.2321 28.2786 65.7352 27.888C65.2469 27.4974 64.9942 26.9635 64.977 26.2865H66.1335C66.1507 26.5556 66.2835 26.8116 66.5319 27.0547C66.7889 27.2891 67.2215 27.4063 67.8298 27.4063C68.378 27.4063 68.7978 27.2977 69.0891 27.0807C69.3804 26.855 69.526 26.5816 69.526 26.2604C69.526 25.974 69.4189 25.7526 69.2047 25.5964C68.9906 25.4314 68.6436 25.3229 68.1639 25.2708L67.4186 25.1927C66.7675 25.1233 66.2363 24.928 65.8251 24.6068C65.4139 24.2769 65.2083 23.8168 65.2083 23.2266C65.2083 22.7839 65.3197 22.4063 65.5424 22.0937C65.7652 21.7726 66.0736 21.5295 66.4676 21.3646C66.8617 21.191 67.3158 21.1042 67.8298 21.1042C68.6008 21.1042 69.2261 21.2778 69.7059 21.625C70.1856 21.9722 70.4341 22.4887 70.4512 23.1745H69.2947C69.2861 22.8967 69.1576 22.6623 68.9092 22.4714C68.6693 22.2717 68.3095 22.1719 67.8298 22.1719C67.35 22.1719 66.9859 22.2717 66.7375 22.4714C66.4891 22.671 66.3648 22.9227 66.3648 23.2266C66.3648 23.487 66.4505 23.6953 66.6218 23.8516C66.8017 24.0078 67.093 24.1076 67.4957 24.151L68.241 24.2292C68.9777 24.3073 69.5688 24.5156 70.0143 24.8542C70.4598 25.184 70.6825 25.6528 70.6825 26.2604C70.6825 26.6944 70.5583 27.0807 70.3098 27.4193C70.07 27.7491 69.7359 28.0095 69.3075 28.2005C68.8792 28.3828 68.3866 28.474 67.8298 28.474Z" fill="white"/>
<path d="M74.8477 28.474C74.0338 28.474 73.4084 28.2049 72.9715 27.6667C72.5346 27.1285 72.3162 26.3516 72.3162 25.3359V21.2995H73.5498V25.5833C73.5498 26.1302 73.6954 26.5599 73.9867 26.8724C74.278 27.1762 74.672 27.3281 75.1689 27.3281C75.6829 27.3281 76.1027 27.1632 76.4282 26.8333C76.7538 26.4948 76.9165 26.0347 76.9165 25.4531V21.2995H78.1502V28.2656H77.1735V25.2839H77.3277C77.3277 25.9696 77.2378 26.5512 77.0579 27.0286C76.878 27.4974 76.6081 27.8576 76.2483 28.1094C75.8971 28.3524 75.4473 28.474 74.8991 28.474H74.8477Z" fill="white"/>
<path d="M80.6165 28.2656V18.7604H81.8501V28.2656H80.6165ZM79.6656 19.75V18.7604H81.8501V19.75H79.6656Z" fill="white"/>
<path d="M86.8891 28.3437C86.3751 28.3437 85.9296 28.27 85.5527 28.1224C85.1843 27.9748 84.8973 27.7231 84.6917 27.3672C84.4947 27.0026 84.3961 26.5122 84.3961 25.8958V19.2031H85.5784V26.0521C85.5784 26.4253 85.6769 26.7161 85.8739 26.9245C86.0795 27.1241 86.3665 27.224 86.7349 27.224H87.9428V28.3437H86.8891ZM83.2139 22.25V21.3125H87.9428V22.25H83.2139Z" fill="white"/>
<path d="M93.8131 28.2656V26.1823H93.6075V23.7734C93.6075 23.296 93.4833 22.9358 93.2348 22.6927C92.995 22.4497 92.6395 22.3281 92.1683 22.3281C91.9027 22.3281 91.6286 22.3325 91.3459 22.3411C91.0632 22.3498 90.7933 22.3585 90.5363 22.3672C90.2793 22.3759 90.0566 22.3889 89.8681 22.4062V21.3125C90.0566 21.2951 90.2536 21.2821 90.4592 21.2734C90.6734 21.2561 90.8918 21.2474 91.1146 21.2474C91.3373 21.2387 91.5515 21.2344 91.7571 21.2344C92.4596 21.2344 93.0335 21.3212 93.479 21.4948C93.9245 21.6597 94.2543 21.9332 94.4685 22.3151C94.6826 22.697 94.7897 23.2135 94.7897 23.8646V28.2656H93.8131ZM91.5643 28.4479C91.0503 28.4479 90.6048 28.3611 90.2279 28.1875C89.8595 28.0052 89.5725 27.7448 89.3669 27.4063C89.1699 27.0677 89.0714 26.6597 89.0714 26.1823C89.0714 25.6875 89.1785 25.2752 89.3926 24.9453C89.6154 24.6155 89.9366 24.3681 90.3564 24.2031C90.7762 24.0295 91.2816 23.9427 91.8727 23.9427H93.736V24.8802H91.8213C91.3245 24.8802 90.9432 25.0017 90.6777 25.2448C90.4121 25.4878 90.2793 25.8003 90.2793 26.1823C90.2793 26.5642 90.4121 26.8724 90.6777 27.1068C90.9432 27.3411 91.3245 27.4583 91.8213 27.4583C92.1126 27.4583 92.391 27.4063 92.6566 27.3021C92.9222 27.1892 93.1406 27.0069 93.3119 26.7552C93.4918 26.4948 93.5904 26.1389 93.6075 25.6875L93.9416 26.1823C93.8988 26.6771 93.7788 27.0938 93.5818 27.4323C93.3933 27.7622 93.1278 28.0139 92.7851 28.1875C92.451 28.3611 92.0441 28.4479 91.5643 28.4479Z" fill="white"/>
<path d="M97.0539 28.2656V21.3125H98.0305V24.2943H97.8763C97.8763 23.6085 97.9662 23.0313 98.1461 22.5625C98.3346 22.0851 98.6173 21.7248 98.9942 21.4818C99.3712 21.23 99.8466 21.1042 100.421 21.1042H100.472C101.337 21.1042 101.975 21.3776 102.387 21.9245C102.806 22.4714 103.016 23.2613 103.016 24.2943V28.2656H101.783V24.0339C101.783 23.4957 101.633 23.066 101.333 22.7448C101.033 22.4149 100.622 22.25 100.099 22.25C99.5596 22.25 99.1227 22.4193 98.7886 22.7578C98.4545 23.0964 98.2875 23.5477 98.2875 24.112V28.2656H97.0539Z" fill="white"/>
<path d="M107.946 28.3437C107.432 28.3437 106.987 28.27 106.61 28.1224C106.241 27.9748 105.955 27.7231 105.749 27.3672C105.552 27.0026 105.453 26.5122 105.453 25.8958V19.2031H106.636V26.0521C106.636 26.4253 106.734 26.7161 106.931 26.9245C107.137 27.1241 107.424 27.224 107.792 27.224H109V28.3437H107.946ZM104.271 22.25V21.3125H109V22.25H104.271Z" fill="white"/>
<path d="M0 28.4844C0.0717037 28.0691 0.342931 27.9255 0.536219 27.7319C6.34733 21.9152 12.1647 16.1017 17.982 10.2881C18.1286 10.1414 18.2782 9.99776 18.4154 9.84165C18.6118 9.61685 18.5681 9.46698 18.2595 9.43888C18.0537 9.42015 17.8449 9.42639 17.636 9.42639C14.082 9.42639 10.528 9.40766 6.97396 9.43888C6.28186 9.44513 6.01687 9.28902 6.02934 8.54905C6.07299 6.13559 6.06675 3.72212 6.04493 1.30865C6.04181 0.715432 6.20081 0.5 6.83367 0.5C13.552 0.521855 20.2703 0.493756 26.9886 0.521855C29.0158 0.529931 34 0.5 34 0.5C34 0.5 33.9798 5.69135 33.9813 7.58429C33.9875 14.2533 33.9751 20.9224 34 27.5914C34 28.2502 33.8722 28.4906 33.1551 28.4781C30.7702 28.4313 28.3822 28.4282 25.9973 28.4781C25.2459 28.4937 25.0994 28.2315 25.1056 27.5446C25.1368 24.0165 25.1212 20.4853 25.115 16.9572C25.115 16.6855 25.2397 16.3077 24.9498 16.1704C24.5944 16.0018 24.4167 16.4014 24.214 16.6012C20.4449 20.3541 16.6789 24.1133 12.9316 27.8849C12.5201 28.3001 12.1117 28.5031 11.51 28.5C7.95599 28.4719 4.40198 28.4844 0.847974 28.4844C0.573629 28.4844 0.299285 28.4844 0.00311755 28.4844H0Z" fill="white"/>
</svg>
