<svg width="110" height="21" viewBox="0 0 110 21" fill="none" xmlns="http://www.w3.org/2000/svg">
<path d="M26.0087 11.7582C24.9887 12.3635 24.009 12.9462 23.0274 13.5281C22.029 14.1203 21.023 14.7022 20.034 15.3075C19.7764 15.4649 19.5965 15.4727 19.3296 15.3118C17.4582 14.1873 15.569 13.088 13.6986 11.9626C13.396 11.7809 13.1947 11.8269 12.9165 11.9948C11.0338 13.1297 9.13904 14.2473 7.25079 15.3736C7.085 15.4727 6.95013 15.4727 6.78153 15.3736C4.80055 14.1934 2.81583 13.0184 0.832039 11.8426C0.794574 11.82 0.757109 11.7965 0.671875 11.7435C1.47644 11.2634 2.23231 10.8094 2.99192 10.3615C4.20205 9.64662 5.4103 8.92826 6.6298 8.22642C6.97354 8.02899 6.88082 7.92985 6.60264 7.76722C4.75653 6.68619 2.91792 5.59385 1.07837 4.50413C0.962231 4.43542 0.849835 4.36063 0.679368 4.25278C1.30129 3.88229 1.88575 3.53181 2.47302 3.1848C3.86392 2.35946 5.26231 1.54195 6.64759 0.707042C6.92109 0.5418 7.11404 0.542669 7.3969 0.713129C9.26642 1.84025 11.1547 2.94129 13.0279 4.06406C13.2818 4.21626 13.4588 4.18756 13.6958 4.0458C15.57 2.92563 17.4545 1.81851 19.3296 0.699214C19.545 0.5705 19.7183 0.507882 19.9609 0.652251C21.8997 1.81242 23.8461 2.96303 25.7886 4.11798C25.8504 4.15451 25.9048 4.20408 25.9994 4.2754C24.9194 4.91723 23.8741 5.53993 22.827 6.16002C21.9194 6.69749 21.0174 7.24105 20.0986 7.762C19.7651 7.95072 19.7605 8.04813 20.0976 8.24381C21.9475 9.31962 23.7861 10.412 25.6266 11.5008C25.7418 11.5686 25.8486 11.6504 26.0087 11.7591V11.7582ZM19.6415 8.02378C19.5104 7.9342 19.4514 7.88897 19.3877 7.85071C17.4591 6.70619 15.5259 5.56776 13.6049 4.41368C13.3417 4.25539 13.1797 4.36671 12.982 4.48412C11.2895 5.48775 9.59518 6.48964 7.90268 7.49326C7.63012 7.65503 7.36318 7.82288 7.06065 8.00725C7.98698 8.5569 8.86741 9.07611 9.7441 9.59879C10.7735 10.2128 11.7925 10.8425 12.8341 11.4373C13.0279 11.5478 13.2602 11.7461 13.5487 11.5782C15.5615 10.4033 17.5753 9.22917 19.6424 8.02378H19.6415Z" fill="white"/>
<path d="M30.9538 10.5042C30.9538 8.54822 30.9632 6.59227 30.9454 4.63633C30.9426 4.31368 31.0222 4.23019 31.3744 4.23453C32.9657 4.25454 34.558 4.2241 36.1493 4.24845C38.0938 4.27802 39.7984 4.82158 40.9795 6.36268C41.5321 7.08365 41.8562 7.90116 41.9489 8.77521C42.1054 10.2476 42.1719 11.7235 41.726 13.1715C41.1172 15.1483 39.376 16.5042 37.1674 16.6772C35.1902 16.8329 33.2064 16.7077 31.2254 16.7477C30.877 16.7546 30.9557 16.5459 30.9557 16.372C30.9538 14.416 30.9548 12.4601 30.9548 10.5042H30.9538ZM33.8358 10.4824H33.834C33.834 11.6835 33.8433 12.8854 33.8274 14.0864C33.8237 14.3708 33.9136 14.4534 34.2161 14.4421C34.8699 14.4178 35.5265 14.4491 36.1793 14.4186C37.6198 14.3517 38.5518 13.6838 38.9086 12.3949C39.2543 11.1451 39.258 9.87015 38.9171 8.61866C38.5911 7.42196 37.7538 6.68272 36.406 6.55749C35.6801 6.49052 34.942 6.54009 34.2114 6.50791C33.8883 6.494 33.8265 6.60358 33.8302 6.87753C33.8452 8.07858 33.8368 9.2805 33.8368 10.4815L33.8358 10.4824Z" fill="white"/>
<path d="M78.6221 8.21973C79.216 7.3283 79.9924 6.71255 81.0949 6.50383C83.7024 6.01158 85.8061 7.21002 86.4149 9.6269C86.8711 11.4376 86.8383 13.2587 85.8942 14.9555C84.6962 17.108 81.4264 17.7064 79.4698 16.1722C79.0951 15.8783 78.8488 15.4965 78.5706 15.052C78.3983 15.5373 78.4086 15.9913 78.3552 16.4323C78.3262 16.6705 78.2503 16.7566 77.988 16.7497C77.3802 16.734 76.7714 16.7332 76.1635 16.748C75.89 16.7549 75.8291 16.661 75.8291 16.4209C75.8366 12.1351 75.8366 7.84924 75.8291 3.56252C75.8291 3.30857 75.9153 3.24508 76.1729 3.24943C76.8744 3.26248 77.5769 3.2703 78.2775 3.24682C78.5837 3.23639 78.6315 3.33727 78.6296 3.59209C78.6165 4.96795 78.6231 6.34293 78.6221 7.71879C78.6221 7.88577 78.6221 8.05188 78.6221 8.21886V8.21973ZM83.7952 11.6811C83.8036 11.1871 83.7671 10.6975 83.5826 10.2287C83.2482 9.37469 82.6319 8.81373 81.64 8.67458C80.5891 8.5276 79.7311 8.85026 79.127 9.6669C78.3552 10.7114 78.3721 12.7134 79.1438 13.7562C79.7283 14.5441 80.5703 14.7781 81.5529 14.6859C82.4698 14.5989 83.1133 14.1597 83.4833 13.3779C83.739 12.8378 83.7952 12.2638 83.7942 11.682L83.7952 11.6811Z" fill="white"/>
<path d="M66.3311 15.2716C66.3311 16.8327 66.3208 18.3094 66.3395 19.7853C66.3433 20.1053 66.2674 20.2123 65.9059 20.1958C65.2371 20.1662 64.5646 20.181 63.894 20.1914C63.657 20.1949 63.5362 20.1714 63.5371 19.8975C63.5474 15.582 63.5465 11.2666 63.5381 6.95119C63.5381 6.70333 63.612 6.63027 63.8762 6.6381C64.4522 6.6555 65.0301 6.65289 65.6071 6.63897C65.8609 6.63288 65.9621 6.70768 65.9855 6.94945C66.0323 7.42257 66.1157 7.8922 66.184 8.36357C66.2955 8.38097 66.3161 8.30009 66.3508 8.24182C67.1272 6.91988 68.3636 6.36415 69.9437 6.40763C71.5425 6.45199 72.7901 7.07382 73.5862 8.39227C74.2728 9.52983 74.4002 10.7787 74.373 12.0476C74.3505 13.1286 74.1417 14.1723 73.5282 15.1202C72.1897 17.1892 68.7467 17.678 66.9952 16.036C66.7713 15.8255 66.5915 15.5742 66.3302 15.2716H66.3311ZM71.4901 11.7893C71.5125 11.1414 71.4217 10.5282 71.1276 9.95772C70.708 9.14456 70.0064 8.69928 69.0286 8.66623C68.0704 8.63405 67.2715 8.94018 66.791 9.7403C66.0866 10.9144 66.0688 12.152 66.6093 13.3721C67.0373 14.3384 67.9852 14.8158 69.0801 14.7332C70.2237 14.6471 71.0105 14.0435 71.3299 13.013C71.4563 12.6059 71.5097 12.1928 71.4901 11.7893Z" fill="white"/>
<path d="M98.8871 11.7881C98.9302 13.0352 98.6735 14.2102 97.8399 15.2207C96.7768 16.5105 95.2764 16.9375 93.611 17.001C92.8767 17.0288 92.1508 16.9523 91.4371 16.7775C89.7811 16.3713 88.6787 15.4121 88.1963 13.8936C87.7833 12.5934 87.7608 11.261 88.1252 9.94866C88.6281 8.13795 89.872 6.96561 91.852 6.57511C93.9529 6.16114 95.9283 6.38987 97.513 7.9014C98.4862 8.82936 98.8327 10.0034 98.8861 11.2671C98.8936 11.4402 98.8871 11.6141 98.8861 11.7881H98.8871ZM90.8011 11.6724C90.7946 12.0881 90.7983 12.4621 90.8929 12.8334C91.1936 14.0206 92.0927 14.6928 93.4012 14.6963C94.6966 14.6998 95.5995 14.0597 95.9011 12.8856C96.1184 12.0411 96.0987 11.1888 95.8393 10.3539C95.5096 9.29378 94.5814 8.6389 93.4331 8.62672C92.2492 8.61368 91.3397 9.25116 90.9772 10.3418C90.8283 10.7897 90.773 11.2462 90.8011 11.6733V11.6724Z" fill="white"/>
<path d="M51.0761 11.8992C51.0443 10.3685 51.344 9.02834 52.4258 7.94296C53.7839 6.57928 55.5411 6.23488 57.4274 6.45839C60.3357 6.80366 62.0132 8.62045 62.0572 11.3513C62.0684 12.0601 62.0684 12.7663 61.8792 13.4638C61.3463 15.4275 59.8261 16.6877 57.6681 16.9356C56.6547 17.0521 55.6497 17.0287 54.6559 16.7877C52.6403 16.2972 51.5341 15.0527 51.1754 13.1829C51.0874 12.7245 51.0602 12.2636 51.0752 11.8992H51.0761ZM56.5048 14.6935C57.7393 14.7292 58.6956 14.1143 59.0197 13.0159C59.3007 12.061 59.2895 11.0904 58.9232 10.1546C58.5439 9.18401 57.7515 8.68916 56.6491 8.62654C55.6478 8.56914 54.7159 9.08313 54.2925 9.97109C53.8486 10.9025 53.8326 11.8827 54.0752 12.8619C54.3665 14.036 55.2085 14.657 56.5039 14.6944L56.5048 14.6935Z" fill="white"/>
<path d="M109.914 16.7441C108.851 16.7441 107.86 16.7432 106.869 16.7449C106.653 16.7449 106.59 16.5814 106.497 16.4562C105.747 15.4604 105.001 14.4629 104.215 13.414C103.693 14.1254 103.103 14.7725 102.709 15.51C102.155 16.544 101.368 16.9415 100.152 16.758C99.6265 16.6788 99.0767 16.7449 98.4473 16.7449C98.8706 16.2031 99.2397 15.7265 99.6134 15.2525C100.525 14.0967 101.43 12.9365 102.356 11.7912C102.538 11.565 102.531 11.4294 102.353 11.2059C101.241 9.80999 100.149 8.40109 99.0505 6.99566C98.9783 6.90348 98.9109 6.80694 98.791 6.64431C99.8915 6.64431 100.928 6.64083 101.964 6.64779C102.15 6.64866 102.195 6.8252 102.279 6.94C102.927 7.82535 103.572 8.71244 104.246 9.6404C104.918 8.7307 105.585 7.8497 106.221 6.94957C106.389 6.71127 106.56 6.63213 106.859 6.63909C107.777 6.65822 108.695 6.64605 109.714 6.64605C109.505 6.91304 109.339 7.12786 109.171 7.34006C108.152 8.61938 107.139 9.90479 106.104 11.1728C105.911 11.4094 105.901 11.552 106.093 11.7955C107.291 13.3122 108.467 14.8429 109.65 16.3701C109.729 16.471 109.798 16.5788 109.914 16.7441V16.7441Z" fill="white"/>
<path d="M19.6822 16.7331C18.1639 17.6323 16.7215 18.4864 15.2791 19.3404C14.7274 19.6665 14.1729 19.9892 13.6269 20.3223C13.4424 20.4345 13.2925 20.4806 13.0799 20.3536C11.1036 19.1717 9.1198 18.0002 7.13882 16.8244C7.10042 16.8018 7.06857 16.7678 7.00488 16.7165C8.22625 15.9921 9.42889 15.2781 10.6325 14.5649C11.4202 14.0979 12.2107 13.6352 12.9956 13.1647C13.1913 13.0473 13.3637 12.9838 13.5913 13.1195C15.5957 14.3144 17.6048 15.5016 19.6831 16.7331H19.6822Z" fill="white"/>
<path d="M46.181 8.72279C47.0793 6.58943 48.6772 6.5329 50.2282 6.55203C50.4109 6.55464 50.4727 6.61117 50.4718 6.77815C50.4652 7.51739 50.4596 8.25663 50.4746 8.995C50.4792 9.23851 50.3406 9.23677 50.1524 9.23764C49.6691 9.23851 49.1829 9.21851 48.7043 9.2646C47.054 9.42376 46.4611 10.0082 46.4264 11.5649C46.3918 13.1434 46.3983 14.7237 46.4161 16.303C46.4199 16.664 46.3206 16.7718 45.9291 16.7535C45.2594 16.7214 44.5869 16.7335 43.9163 16.7501C43.6456 16.757 43.5772 16.6718 43.5781 16.4291C43.5856 13.2704 43.5866 10.1108 43.5781 6.95209C43.5781 6.7051 43.6549 6.6303 43.92 6.63987C44.4501 6.65813 44.9821 6.66422 45.5113 6.63726C45.8036 6.62247 45.8888 6.73206 45.9207 6.96861C45.9993 7.55479 46.093 8.13835 46.181 8.72365V8.72279Z" fill="white"/>
</svg>
