<!DOCTYPE svg PUBLIC "-//W3C//DTD SVG 1.1//EN" "http://www.w3.org/Graphics/SVG/1.1/DTD/svg11.dtd">
<!-- Uploaded to: SVG Repo, www.svgrepo.com, Transformed by: SVG Repo Mixer Tools -->
<svg width="256px" height="256px" viewBox="-2.4 -2.4 52.80 52.80" id="b" xmlns="http://www.w3.org/2000/svg" fill="#000000" stroke="#000000" stroke-width="0.9600000000000002">
<g id="SVGRepo_bgCarrier" stroke-width="0"/>
<g id="SVGRepo_tracerCarrier" stroke-linecap="round" stroke-linejoin="round" stroke="#CCCCCC" stroke-width="0.9600000000000002">
<defs>
<style>.c{fill:none;stroke:#000000;stroke-linecap:round;stroke-linejoin:round;}</style>
</defs>
<path class="c" d="m37.5,42.5h0c2.7614,0,5-2.2386,5-5V10.5c0-2.7614-2.2386-5-5-5h0c-2.7614,0-5,2.2386-5,5v27c0,2.7614,2.2386,5,5,5Z"/>
<path class="c" d="m24,42.5h0c2.7614,0,5-2.2386,5-5v-16c0-2.7614-2.2386-5-5-5h0c-2.7614,0-5,2.2386-5,5v16c0,2.7614,2.2386,5,5,5Z"/>
<circle class="c" cx="10.5" cy="37.5" r="5"/>
</g>
<g id="SVGRepo_iconCarrier">
<defs>
<style>.c{fill:none;stroke:#000000;stroke-linecap:round;stroke-linejoin:round;}</style>
</defs>
<path class="c" d="m37.5,42.5h0c2.7614,0,5-2.2386,5-5V10.5c0-2.7614-2.2386-5-5-5h0c-2.7614,0-5,2.2386-5,5v27c0,2.7614,2.2386,5,5,5Z"/>
<path class="c" d="m24,42.5h0c2.7614,0,5-2.2386,5-5v-16c0-2.7614-2.2386-5-5-5h0c-2.7614,0-5,2.2386-5,5v16c0,2.7614,2.2386,5,5,5Z"/>
<circle class="c" cx="10.5" cy="37.5" r="5"/>
</g>
</svg>