<!DOCTYPE svg PUBLIC "-//W3C//DTD SVG 1.1//EN" "http://www.w3.org/Graphics/SVG/1.1/DTD/svg11.dtd">
<!-- Uploaded to: SVG Repo, www.svgrepo.com, Transformed by: SVG Repo Mixer Tools -->
<svg fill="rgb(230, 230, 230)" width="256px" height="256px" viewBox="-1.2 -1.2 26.40 26.40" role="img" xmlns="http://www.w3.org/2000/svg" stroke="rgb(230, 230, 230)" stroke-width="0.00024000000000000003">
<g id="SVGRepo_bgCarrier" stroke-width="0"/>
<g id="SVGRepo_tracerCarrier" stroke-linecap="round" stroke-linejoin="round" stroke="black" stroke-width="1.6799999999999997">
<path d="M4 22.93a4 4 0 1 1 0-8 4 4 0 0 1 0 8zm19.464-6.001-8-13.857a4 4 0 0 0-6.93 4l8.001 13.857a4.001 4.001 0 0 0 6.93-4zM7.514 4.844l-5.95 10.304A4.5 4.5 0 0 1 4 14.43c2.56-.008 4.625 2.158 4.494 4.715l3.217-5.573-3.61-6.25a4.463 4.463 0 0 1-.587-2.478z"/>
</g>
<g id="SVGRepo_iconCarrier">
<path d="M4 22.93a4 4 0 1 1 0-8 4 4 0 0 1 0 8zm19.464-6.001-8-13.857a4 4 0 0 0-6.93 4l8.001 13.857a4.001 4.001 0 0 0 6.93-4zM7.514 4.844l-5.95 10.304A4.5 4.5 0 0 1 4 14.43c2.56-.008 4.625 2.158 4.494 4.715l3.217-5.573-3.61-6.25a4.463 4.463 0 0 1-.587-2.478z"/>
</g>
</svg>