<svg width="51" height="37" viewBox="0 0 51 37" fill="none" xmlns="http://www.w3.org/2000/svg">
<g clip-path="url(#clip0_46_770)">
<path d="M14.1323 0.5C14.3275 0.575789 14.5369 0.56292 14.7392 0.594379C17.3305 0.991917 19.4438 2.226 21.0903 4.28089C21.1681 4.37813 21.2091 4.40673 21.3138 4.30091C22.6632 2.9367 24.2743 2.0544 26.1598 1.74981C28.8997 1.30794 31.3454 2.00578 33.4714 3.81043C34.2663 4.48538 34.9156 5.28761 35.4319 6.19708C35.5026 6.32149 35.5648 6.29575 35.6596 6.25428C36.7205 5.79096 37.828 5.50354 38.978 5.41059C41.691 5.1918 44.1721 5.86246 46.3674 7.49265C48.7918 9.29158 50.2983 11.7083 50.7566 14.7098C51.3592 18.6451 50.2177 22.0414 47.3575 24.7941C45.6729 26.4157 43.6374 27.3495 41.3261 27.6541C40.1903 27.8042 39.0615 27.7699 37.937 27.554C37.8323 27.534 37.7701 27.5483 37.7064 27.6541C36.4489 29.7576 34.6313 31.0732 32.2408 31.5379C30.5745 31.8625 28.9577 31.6452 27.4131 30.9273C27.2971 30.873 27.2617 30.8873 27.208 31.0031C25.9222 33.7802 23.8202 35.6077 20.854 36.254C17.3546 37.0162 14.3587 35.9852 11.9399 33.3097C11.2241 32.5189 10.6979 31.6009 10.316 30.6013C10.2722 30.4883 10.2297 30.4497 10.0982 30.4712C6.68924 31.0231 3.8956 29.9335 1.75405 27.2036C0.751165 25.9267 0.219313 24.438 0.0509875 22.8179C0.046744 22.7807 0.0623035 22.7349 0.015625 22.712V21.375C0.0481585 21.1276 0.072205 20.8774 0.113226 20.6314C0.540405 17.9974 1.87569 15.9682 4.1007 14.5368C4.22659 14.4567 4.24498 14.3995 4.18982 14.2651C3.46842 12.4962 3.26756 10.6615 3.59007 8.77964C3.98754 6.46449 5.07105 4.52399 6.81654 2.97245C8.28762 1.66544 10.0006 0.876087 11.9427 0.594379C12.1747 0.56006 12.4109 0.56578 12.6386 0.5H14.1309H14.1323ZM29.102 15.8867C29.2321 15.8867 29.3623 15.8853 29.4924 15.8867C29.5971 15.8881 29.6607 15.8538 29.6763 15.7351C29.6989 15.5664 29.7343 15.3976 29.7682 15.2303C29.7923 15.1116 29.7527 15.063 29.6296 15.0659C29.3693 15.0716 29.1091 15.0659 28.8488 15.0687C28.7639 15.0702 28.7399 15.0401 28.7554 14.9601C28.7965 14.747 28.8304 14.5311 28.9238 14.3352C29.0497 14.0677 29.2562 13.909 29.5575 13.8919C29.7173 13.8833 29.8743 13.8919 30.0271 13.9433C30.1261 13.9762 30.1728 13.9433 30.2053 13.8504C30.2633 13.6774 30.3241 13.5058 30.3906 13.3356C30.4359 13.2198 30.3991 13.1711 30.2845 13.1425C30.1303 13.1025 29.9747 13.0725 29.8177 13.0653C28.9407 13.0253 28.2943 13.3242 27.9676 14.2565C27.8954 14.4624 27.8374 14.6712 27.812 14.8857C27.795 15.0201 27.7596 15.0902 27.6055 15.073C27.4598 15.0559 27.3112 15.073 27.1655 15.0673C27.058 15.063 27.0128 15.1116 26.9958 15.2132C26.9689 15.3819 26.9392 15.5506 26.9053 15.718C26.8798 15.8395 26.9265 15.8896 27.0453 15.8867C27.1981 15.8838 27.3508 15.891 27.5036 15.8838C27.6154 15.8781 27.6436 15.901 27.621 16.0254C27.44 17.0178 27.2716 18.0131 27.0906 19.0055C27.0043 19.4817 26.9505 19.965 26.7766 20.4212C26.5799 20.936 26.3112 21.089 25.7737 20.9946C25.7298 20.9875 25.6846 20.976 25.6435 20.9574C25.5502 20.9145 25.4978 20.9388 25.4639 21.0389C25.4059 21.212 25.3423 21.3821 25.2772 21.5523C25.2376 21.6567 25.2729 21.7168 25.3734 21.7454C25.5035 21.7825 25.6336 21.8197 25.7694 21.8312C26.7129 21.9127 27.3226 21.5966 27.6634 20.6972C27.7356 20.5056 27.7992 20.3082 27.8388 20.1095C28.0963 18.8468 28.2943 17.5741 28.5192 16.3057C28.5942 15.8853 28.5857 15.8838 29.0016 15.8838C29.0355 15.8838 29.0695 15.8838 29.1034 15.8838L29.102 15.8867ZM15.2583 17.9144H15.2526C15.2526 17.4297 15.2668 16.9435 15.2498 16.4587C15.2215 15.6836 14.8014 15.196 14.0531 15.033C13.6373 14.9429 13.2214 14.9601 12.8055 15.0187C12.4802 15.0644 12.1662 15.1531 11.8663 15.2947C11.7192 15.3647 11.6555 15.4477 11.7376 15.6121C11.7984 15.7337 11.8423 15.8652 11.8805 15.9954C11.9201 16.1298 11.9781 16.147 12.1025 16.0826C12.5071 15.871 12.947 15.7923 13.3968 15.7966C14.0461 15.8023 14.3162 16.0726 14.3106 16.6718C14.3106 16.779 14.2978 16.8148 14.1719 16.7976C13.6896 16.7318 13.2044 16.7075 12.7221 16.8176C11.7631 17.0364 11.2708 17.8015 11.4858 18.7395C11.6145 19.3001 12.0926 19.6762 12.7645 19.7677C13.5708 19.8778 14.3502 19.7334 15.1296 19.5518C15.23 19.5289 15.2625 19.4745 15.2611 19.3702C15.2569 18.8854 15.2583 18.3992 15.2583 17.913V17.9144ZM44.1594 17.6456C44.612 17.6456 45.0632 17.6427 45.5159 17.647C45.6347 17.647 45.6842 17.6141 45.6983 17.4869C45.7266 17.2352 45.7167 16.9864 45.6913 16.7361C45.5951 15.8009 45.0081 15.053 43.9769 14.9801C42.8905 14.9043 42.0376 15.4548 41.749 16.4916C41.6161 16.9721 41.5892 17.4583 41.6628 17.9487C41.7462 18.5079 41.9655 18.9998 42.4266 19.3501C42.8241 19.6519 43.2838 19.7763 43.7718 19.7977C44.3291 19.8206 44.8765 19.782 45.3999 19.5575C45.5243 19.5046 45.5625 19.4359 45.5074 19.3072C45.4494 19.1714 45.3956 19.0327 45.3574 18.8897C45.3207 18.7524 45.2499 18.7352 45.1325 18.7839C44.728 18.954 44.3022 18.9912 43.8694 18.974C43.1508 18.9454 42.7095 18.5079 42.6642 17.7986C42.6572 17.6813 42.6798 17.6399 42.8043 17.6413C43.2569 17.6484 43.7081 17.6442 44.1608 17.6442L44.1594 17.6456ZM20.5202 17.6456C20.9672 17.6456 21.4142 17.6384 21.8598 17.6499C22.0267 17.6542 22.0705 17.5912 22.0804 17.4354C22.0931 17.2237 22.0917 17.0135 22.0733 16.8033C21.9871 15.8138 21.4 15.0702 20.3816 14.9858C19.3476 14.9 18.4805 15.3733 18.1509 16.4001C17.9458 17.0393 17.9402 17.6913 18.1241 18.3391C18.3009 18.9626 18.6955 19.3902 19.291 19.6275C19.605 19.752 19.9332 19.802 20.2684 19.8063C20.7861 19.8134 21.2954 19.7677 21.7777 19.5589C21.8895 19.5103 21.9361 19.4502 21.881 19.323C21.8201 19.1828 21.7735 19.0341 21.7296 18.8882C21.6928 18.7667 21.6264 18.7381 21.5132 18.7867C21.1412 18.9426 20.7508 18.9841 20.3519 18.9812C19.5527 18.9769 19.1326 18.598 19.035 17.7929C19.0209 17.6728 19.0506 17.6456 19.1637 17.647C19.6164 17.6513 20.0676 17.6484 20.5202 17.6484V17.6456ZM31.9833 19.8049C33.0145 19.8006 33.7557 19.2414 34.0061 18.2705C34.1178 17.8358 34.132 17.3939 34.0881 16.9463C33.9778 15.7923 33.2224 15.043 32.0781 14.9729C31.0639 14.91 30.2449 15.4949 29.9648 16.483C29.8333 16.9506 29.8191 17.4268 29.8786 17.9073C30.0214 19.0784 30.8277 19.8077 31.9819 19.8049H31.9833ZM24.4483 14.9643C24.1781 14.9486 23.8726 14.9987 23.5883 15.1374C23.0791 15.3862 22.8089 15.798 22.7933 16.3715C22.7792 16.9363 23.0706 17.3024 23.5586 17.534C23.7679 17.6341 23.9886 17.7056 24.2107 17.7729C24.4752 17.8529 24.7439 17.923 24.9872 18.0588C25.14 18.1446 25.2645 18.2562 25.2659 18.4564C25.2659 18.6652 25.1739 18.8167 24.9985 18.9197C24.8217 19.0241 24.6265 19.047 24.4257 19.0355C23.9405 19.0084 23.4992 18.8539 23.0946 18.5822C22.9475 18.4836 22.9107 18.4993 22.8499 18.6623C22.799 18.801 22.758 18.944 22.6971 19.0784C22.6391 19.2086 22.6703 19.2815 22.7905 19.3544C23.2743 19.6519 23.7976 19.8049 24.3634 19.822C24.8062 19.8349 25.2263 19.7734 25.6153 19.536C26.2928 19.1199 26.5333 17.8258 25.587 17.3067C25.3168 17.1594 25.0325 17.055 24.7425 16.9592C24.4752 16.8705 24.1993 16.8005 23.9603 16.6417C23.642 16.4301 23.6647 16.0368 24.0013 15.8581C24.1654 15.7709 24.345 15.7537 24.5275 15.7694C24.9363 15.8052 25.3281 15.9039 25.693 16.0969C25.7878 16.147 25.8472 16.1384 25.884 16.024C25.9307 15.8781 25.983 15.7323 26.0453 15.5921C26.1061 15.4577 26.0651 15.3848 25.942 15.319C25.4879 15.0787 25.0056 14.9586 24.4469 14.9672L24.4483 14.9643ZM9.16886 14.9643C8.85342 14.9486 8.51111 15.0215 8.18861 15.1974C7.36961 15.6436 7.23665 16.932 8.07545 17.4254C8.31167 17.5641 8.56345 17.6599 8.8223 17.7414C9.12359 17.8372 9.43337 17.9073 9.71203 18.0631C9.86903 18.1504 9.98644 18.2748 9.98361 18.4664C9.98078 18.678 9.87469 18.8353 9.68939 18.9326C9.51399 19.0241 9.32445 19.0455 9.12925 19.0341C8.64408 19.0055 8.20134 18.8496 7.80103 18.5736C7.68363 18.4936 7.60866 18.5021 7.56481 18.6509C7.51813 18.8024 7.46721 18.954 7.40639 19.1013C7.3583 19.2143 7.38659 19.2801 7.4856 19.3401C7.7586 19.5046 8.0415 19.6476 8.35127 19.7191C8.95527 19.8578 9.56209 19.905 10.1434 19.6333C10.6399 19.4016 10.8846 18.9941 10.9172 18.4421C10.9511 17.8729 10.681 17.5026 10.2014 17.2509C9.95956 17.1251 9.70354 17.0378 9.4461 16.9535C9.183 16.8677 8.91425 16.7947 8.67944 16.6403C8.35552 16.4287 8.37957 16.0225 8.72612 15.8481C8.88737 15.7666 9.05994 15.748 9.23675 15.7637C9.64554 15.8009 10.0388 15.8953 10.4023 16.0912C10.5112 16.1498 10.5678 16.1184 10.6032 16.0068C10.647 15.871 10.6866 15.7323 10.7503 15.6064C10.8309 15.4477 10.7701 15.3733 10.6315 15.3018C10.1845 15.073 9.71344 14.9558 9.16461 14.9629L9.16886 14.9643ZM40.0813 19.8006C40.4746 19.8063 40.8565 19.7377 41.2299 19.6161C41.3459 19.5789 41.3827 19.5189 41.3346 19.4002C41.2709 19.2414 41.2158 19.0799 41.1606 18.9183C41.1295 18.8253 41.0814 18.7881 40.9838 18.831C40.7617 18.9254 40.5255 18.9454 40.2893 18.9683C39.5721 19.0341 39.0261 18.6823 38.8536 18.0231C38.7333 17.5612 38.7418 17.0979 38.8988 16.6417C39.0855 16.1012 39.4491 15.8295 40.0149 15.8109C40.3034 15.8009 40.5934 15.8166 40.8692 15.9081C41.0361 15.9639 41.1069 15.9153 41.1479 15.7551C41.1804 15.6293 41.2271 15.5049 41.2808 15.3862C41.3431 15.2446 41.3162 15.1746 41.1592 15.1274C40.7433 15.0015 40.319 14.9601 39.8876 14.9715C38.9144 14.9972 38.1477 15.6007 37.8889 16.5459C37.7389 17.0907 37.7361 17.6413 37.8691 18.1875C38.0162 18.7896 38.333 19.2743 38.8988 19.5575C39.2708 19.7434 39.6711 19.8049 40.0828 19.7991L40.0813 19.8006ZM16.2187 16.4244C16.2187 17.4525 16.2216 18.4793 16.2159 19.5074C16.2159 19.6519 16.2484 19.7162 16.404 19.7048C16.5893 19.6919 16.7775 19.6919 16.9628 19.7048C17.1325 19.7176 17.1891 19.6619 17.1862 19.486C17.1778 18.7553 17.182 18.0245 17.182 17.2938C17.182 15.9925 17.182 14.6898 17.182 13.3885C17.182 13.1583 17.1778 13.154 16.9585 13.154C16.7831 13.154 16.6077 13.1654 16.4337 13.1511C16.2569 13.1368 16.2131 13.2055 16.2145 13.3756C16.2216 14.3924 16.2173 15.4076 16.2173 16.4244H16.2187ZM35.8576 15.4749C35.8209 15.3905 35.835 15.3147 35.8378 15.2432C35.8449 15.1088 35.7869 15.0602 35.6568 15.0659C35.4644 15.073 35.272 15.073 35.0797 15.0659C34.9524 15.0616 34.8972 15.0988 34.8986 15.2389C34.9029 16.6732 34.9014 18.106 34.8986 19.5403C34.8986 19.6576 34.9326 19.7062 35.0542 19.7019C35.2466 19.6948 35.439 19.7005 35.6313 19.7005C35.7813 19.7005 35.8562 19.6271 35.8562 19.4803C35.8562 18.8067 35.8534 18.1318 35.8562 17.4583C35.8562 17.2252 35.8718 16.9906 35.9185 16.7604C36.0161 16.2742 36.3117 15.9897 36.7912 15.9096C36.9397 15.8853 37.084 15.901 37.2283 15.9239C37.3089 15.9367 37.3839 15.9396 37.4178 15.8338C37.4801 15.6393 37.5508 15.4463 37.6215 15.2546C37.6527 15.1703 37.6258 15.1231 37.5437 15.1031C37.2439 15.0301 36.9426 14.9987 36.637 15.0544C36.3358 15.1088 36.0826 15.2618 35.8562 15.4763L35.8576 15.4749Z" fill="white"/>
<path d="M14.3067 18.2518C14.3067 18.4405 14.3067 18.6279 14.3067 18.8166C14.3067 18.8781 14.3011 18.9282 14.2247 18.9396C13.806 19.0025 13.3873 19.0812 12.9658 18.9782C12.598 18.8896 12.4198 18.6865 12.4028 18.349C12.3844 17.9729 12.5414 17.7298 12.8936 17.6011C13.335 17.4396 13.7834 17.5096 14.2332 17.5625C14.3209 17.5725 14.3067 17.6312 14.3081 17.6855C14.3081 17.8743 14.3081 18.0616 14.3081 18.2504L14.3067 18.2518Z" fill="white"/>
<path d="M43.7116 16.9004C43.4061 16.9004 43.102 16.8961 42.7964 16.9018C42.6861 16.9032 42.6649 16.8746 42.6903 16.7645C42.7922 16.3127 42.9747 15.9323 43.4669 15.8079C44.1346 15.6377 44.7301 16.0996 44.747 16.7931C44.7499 16.9004 44.7004 16.9018 44.6268 16.9004C44.3213 16.9004 44.0171 16.9004 43.7116 16.9004V16.9004Z" fill="white"/>
<path d="M20.0709 16.9008C19.7725 16.9008 19.4726 16.9008 19.1741 16.9008C19.1161 16.9008 19.0497 16.9194 19.0539 16.8121C19.0695 16.3989 19.4005 15.9427 19.7795 15.824C20.4599 15.6109 21.0837 16.0557 21.1247 16.7778C21.1304 16.8808 21.0964 16.9037 21.0031 16.9022C20.6933 16.8979 20.3821 16.9008 20.0723 16.9008H20.0709Z" fill="white"/>
<path d="M33.1016 17.3926C33.1059 17.7372 33.0648 18.0747 32.9276 18.395C32.7452 18.8212 32.4142 19.0114 31.9615 19.0056C31.5216 18.9999 31.1949 18.8083 31.0379 18.3893C30.7931 17.7372 30.7903 17.0737 31.0322 16.4174C31.1934 15.9798 31.5329 15.7896 31.9842 15.791C32.4354 15.791 32.7607 15.9898 32.9375 16.4202C33.0648 16.732 33.1044 17.0566 33.1016 17.3898V17.3926Z" fill="white"/>
</g>
<defs>
<clipPath id="clip0_46_770">
<rect width="50.8966" height="36" fill="white" transform="translate(0.0166016 0.5)"/>
</clipPath>
</defs>
</svg>
